<svg viewBox="0 0 96 64" fill="none" xmlns="http://www.w3.org/2000/svg" role="img" aria-label="ChickenAndy RV">
  <ellipse cx="48" cy="58.5" rx="40" ry="3.2" fill="#000000" opacity="0.25"/>

  <!-- one bold camper silhouette with a sloped nose -->
  <path d="M6 14 a5 5 0 0 1 5 -5 H64 c3.2 0 6.2 1.5 8.1 4.1 L82.5 27 c2.2 3 3.5 6.3 3.5 10 V49 a5 5 0 0 1 -5 5 H11 a5 5 0 0 1 -5 -5 Z" fill="#EDE3CB"/>
  <path d="M6 14 a5 5 0 0 1 5 -5 H64 c3.2 0 6.2 1.5 8.1 4.1 L82.5 27 c2.2 3 3.5 6.3 3.5 10 V49 a5 5 0 0 1 -5 5 H11 a5 5 0 0 1 -5 -5 Z" stroke="#3A352D" stroke-width="1.6" opacity="0.35"/>

  <!-- windshield on the slope -->
  <path d="M64.5 12.5 c2 0.3 3.8 1.4 5 3 L77 25.5 H64.5 Z" fill="#3A4A52"/>
  <path d="M64.5 12.5 c2 0.3 3.8 1.4 5 3 l1.8 2.4 -6.8 -1.9 Z" fill="#5B7079" opacity="0.85"/>

  <!-- big side windows + door -->
  <rect x="12" y="16" width="15" height="11" rx="2" fill="#3A4A52"/>
  <rect x="12" y="16" width="15" height="4" rx="2" fill="#5B7079" opacity="0.7"/>
  <rect x="31" y="16" width="15" height="11" rx="2" fill="#3A4A52"/>
  <rect x="31" y="16" width="15" height="4" rx="2" fill="#5B7079" opacity="0.7"/>
  <rect x="50" y="20" width="11" height="26" rx="1.8" fill="#D8C7A2"/>
  <rect x="52" y="22" width="7" height="8" rx="1.2" fill="#3A4A52"/>

  <!-- signature stripes -->
  <path d="M6 33 H86 v6 H6 Z" fill="#E8853A"/>
  <path d="M6 33 H86 v1.8 H6 Z" fill="#F2A65A"/>
  <path d="M6 41.5 H86 v3 H6 Z" fill="#B4552D"/>

  <!-- roof box -->
  <rect x="16" y="4.5" width="16" height="6" rx="2" fill="#CFC1A0"/>

  <!-- wheels: big and unmistakable -->
  <path d="M12 54 a10.5 10.5 0 0 1 21 0 Z" fill="#2A2620"/>
  <path d="M61 54 a10.5 10.5 0 0 1 21 0 Z" fill="#2A2620"/>
  <circle cx="22.5" cy="52.5" r="9" fill="#16130F"/>
  <circle cx="22.5" cy="52.5" r="4.4" fill="#8A7B5C"/>
  <circle cx="22.5" cy="52.5" r="1.6" fill="#2A2620"/>
  <circle cx="71.5" cy="52.5" r="9" fill="#16130F"/>
  <circle cx="71.5" cy="52.5" r="4.4" fill="#8A7B5C"/>
  <circle cx="71.5" cy="52.5" r="1.6" fill="#2A2620"/>

  <!-- headlight + bumper -->
  <rect x="82" y="42.5" width="4.5" height="5" rx="1.6" fill="#FBE2A0"/>
  <rect x="78" y="50" width="10" height="4" rx="2" fill="#3A352D"/>
</svg>
